<?xml version="1.0" ?>
<!-- Uploaded to: SVG Repo, www.svgrepo.com, Generator: SVG Repo Mixer Tools -->
<svg fill="#000000" width="800px" height="800px" viewBox="0 0 64 64" xmlns="http://www.w3.org/2000/svg">
<title/>
<g id="Sunny">
<path d="M38.7744,16.75a1,1,0,0,0,1-1V8.542a1,1,0,0,0-2,0V15.75A1,1,0,0,0,38.7744,16.75Z"/>
<path d="M26.7407,21.1484a1,1,0,0,0,1.4141-1.414l-3.398-3.398a1,1,0,1,0-1.414,1.4141Z"/>
<path d="M62,30.7676H54.792a1,1,0,0,0,0,2H62a1,1,0,0,0,0-2Z"/>
<path d="M50.1006,21.4414a.9964.9964,0,0,0,.707-.293l3.398-3.3979a1,1,0,0,0-1.4141-1.4141l-3.3979,3.398a1,1,0,0,0,.707,1.707Z"/>
<path d="M39.8745,31.9111c.1436-.0044.2871-.0068.43-.0068a13.2989,13.2989,0,0,1,9.8323,4.3465A12.2161,12.2161,0,0,0,28.8527,24.6387,16.1168,16.1168,0,0,1,39.8745,31.9111Z"/>
<path d="M51.5659,44.4351A11.2818,11.2818,0,0,0,38.7754,34.0073a14.071,14.071,0,0,0-25.7339,1.7656A7.5344,7.5344,0,0,0,5.72,44.1313,8.5348,8.5348,0,0,0,1,51.7227a8.4075,8.4075,0,0,0,1.1431,4.24.9991.9991,0,0,0,.8632.4956H55.0127a1.0008,1.0008,0,0,0,.8169-.4228,7.4345,7.4345,0,0,0,1.3638-4.3125A7.5632,7.5632,0,0,0,51.5659,44.4351Z"/>
</g>
</svg>