<?xml version="1.0" ?>
<!-- Uploaded to: SVG Repo, www.svgrepo.com, Generator: SVG Repo Mixer Tools -->
<svg fill="#000000" width="800px" height="800px" viewBox="0 0 64 64" xmlns="http://www.w3.org/2000/svg">
<title/>
<g id="Moon">
<circle cx="20" cy="22" r="5"/>
<circle cx="14" cy="37" r="3"/>
<path d="M28,55.67a10.4953,10.4953,0,0,1,5.76-9.35.1483.1483,0,0,0,.01-.07,12.3638,12.3638,0,0,1,22.6-4.82A27.704,27.704,0,0,0,58,32,27.9965,27.9965,0,1,0,38.53,58.67H31A3.0088,3.0088,0,0,1,28,55.67ZM14,42a5,5,0,1,1,5-5A5.0018,5.0018,0,0,1,14,42Zm6-13a7,7,0,1,1,7-7A7.0077,7.0077,0,0,1,20,29Z"/>
<path d="M56.3672,47.6948c-.0186-.3574-.0576-.7363-.1211-1.1675a10.0851,10.0851,0,0,0-1.0693-3.19A10.3666,10.3666,0,0,0,35.751,46.5449c-.0615.419-.1006.794-.1182,1.15A8.46,8.46,0,0,0,30,55.67a1,1,0,0,0,1,1H61a1,1,0,0,0,1-1A8.46,8.46,0,0,0,56.3672,47.6948Z"/>
</g>
</svg>