<?xml version="1.0" encoding="utf-8"?>

<!-- Uploaded to: SVG Repo, www.svgrepo.com, Generator: SVG Repo Mixer Tools -->
<svg fill="#000000" height="800px" width="800px" version="1.1" id="Icons" xmlns="http://www.w3.org/2000/svg" xmlns:xlink="http://www.w3.org/1999/xlink" 
	 viewBox="0 0 32 32" xml:space="preserve">
<g>
	<path d="M4.6,19h21.1c0.3,0,0.6-0.1,0.7-0.3c1.7-1.8,2.6-4.2,2.6-6.7c0-5.5-4.5-10-10-10c-4.4,0-8.2,2.8-9.5,7C5.9,9,3,11.9,3,15.5
		c0,1,0.2,2,0.7,3C3.9,18.8,4.2,19,4.6,19z"/>
	<path d="M26,21H4c-0.6,0-1,0.4-1,1s0.4,1,1,1h22c1.1,0,2,0.9,2,2s-0.9,2-2,2s-2-0.9-2-2c0-0.6-0.4-1-1-1s-1,0.4-1,1
		c0,2.2,1.8,4,4,4s4-1.8,4-4S28.2,21,26,21z"/>
	<path d="M18,25h-7c-0.6,0-1,0.4-1,1s0.4,1,1,1h5h2c0.6,0,1,0.4,1,1s-0.4,1-1,1s-1-0.4-1-1c0-0.6-0.4-1-1-1s-1,0.4-1,1
		c0,1.7,1.3,3,3,3s3-1.3,3-3S19.7,25,18,25z"/>
	<path d="M8.9,25.6c0-0.1-0.1-0.1-0.1-0.2c0-0.1-0.1-0.1-0.1-0.2C8.4,25,8,24.9,7.6,25.1c-0.1,0-0.2,0.1-0.3,0.2
		c0,0-0.1,0.1-0.1,0.2c0,0-0.1,0.1-0.1,0.2c0,0.1,0,0.1-0.1,0.2c0,0.1,0,0.1,0,0.2c0,0.1,0,0.3,0.1,0.4c0.1,0.1,0.1,0.2,0.2,0.3
		C7.5,26.9,7.7,27,8,27c0.1,0,0.3,0,0.4-0.1s0.2-0.1,0.3-0.2c0.1-0.1,0.2-0.2,0.2-0.3C9,26.3,9,26.1,9,26c0-0.1,0-0.1,0-0.2
		C9,25.7,8.9,25.7,8.9,25.6z"/>
</g>
</svg>