<?xml version="1.0" encoding="utf-8"?>

<!-- Uploaded to: SVG Repo, www.svgrepo.com, Generator: SVG Repo Mixer Tools -->
<svg fill="#000000" height="800px" width="800px" version="1.1" id="Icons" xmlns="http://www.w3.org/2000/svg" xmlns:xlink="http://www.w3.org/1999/xlink" 
	 viewBox="0 0 32 32" xml:space="preserve">
<path d="M21.7,22.6l-1.9,0.5L18,22l1.8-1.1l1.9,0.5c0.1,0,0.2,0,0.3,0c0.4,0,0.8-0.3,1-0.7c0.1-0.5-0.2-1.1-0.7-1.2l-1.4-0.4
	l0.4-1.4c0.1-0.5-0.2-1.1-0.7-1.2c-0.5-0.1-1.1,0.2-1.2,0.7l-0.5,1.9L17,20.3v-2.1l1.4-1.4c0.4-0.4,0.4-1,0-1.4s-1-0.4-1.4,0l-1,1
	l-1-1c-0.4-0.4-1-0.4-1.4,0s-0.4,1,0,1.4l1.4,1.4v2.1l-1.8-1.1l-0.5-1.9c-0.1-0.5-0.7-0.9-1.2-0.7c-0.5,0.1-0.9,0.7-0.7,1.2l0.4,1.4
	l-1.4,0.4c-0.5,0.1-0.9,0.7-0.7,1.2c0.1,0.4,0.5,0.7,1,0.7c0.1,0,0.2,0,0.3,0l1.9-0.5L14,22l-1.8,1.1l-1.9-0.5
	c-0.5-0.1-1.1,0.2-1.2,0.7c-0.1,0.5,0.2,1.1,0.7,1.2l1.4,0.4l-0.4,1.4c-0.1,0.5,0.2,1.1,0.7,1.2c0.1,0,0.2,0,0.3,0
	c0.4,0,0.8-0.3,1-0.7l0.5-1.9l1.8-1.1v2.1l-1.4,1.4c-0.4,0.4-0.4,1,0,1.4s1,0.4,1.4,0l1-1l1,1c0.2,0.2,0.5,0.3,0.7,0.3
	s0.5-0.1,0.7-0.3c0.4-0.4,0.4-1,0-1.4L17,25.9v-2.1l1.8,1.1l0.5,1.9c0.1,0.4,0.5,0.7,1,0.7c0.1,0,0.2,0,0.3,0
	c0.5-0.1,0.9-0.7,0.7-1.2l-0.4-1.4l1.4-0.4c0.5-0.1,0.9-0.7,0.7-1.2C22.8,22.7,22.3,22.4,21.7,22.6z"/>
<path d="M19,3c-4.4,0-8.2,2.8-9.5,7C5.9,10,3,12.9,3,16.5c0,2.4,1.3,4.6,3.4,5.7c0.3,0.1,0.5,0.3,0.8,0.4c0.1-0.2,0.1-0.4,0.2-0.5
	c-0.1-0.2-0.2-0.5-0.3-0.7C6.9,20.5,7,19.7,7.4,19c0.3-0.5,0.8-0.9,1.3-1.2c0-0.6,0.1-1.2,0.4-1.7c0.4-0.7,1-1.2,1.8-1.4
	c0.3-0.1,0.5-0.1,0.8-0.1c0.1-0.2,0.3-0.4,0.5-0.6c1-1,2.7-1.2,3.8-0.4c1.2-0.8,2.8-0.7,3.8,0.4c0.2,0.2,0.3,0.4,0.5,0.6
	c0.3,0,0.5,0,0.8,0.1c0.8,0.2,1.4,0.7,1.8,1.4c0.3,0.5,0.4,1.1,0.4,1.7c0.5,0.3,1,0.7,1.3,1.2c0.4,0.6,0.5,1.3,0.3,2
	c2.5-1.8,4.1-4.7,4.1-8C29,7.5,24.5,3,19,3z"/>
</svg>