<?xml version="1.0" ?>
<!-- Uploaded to: SVG Repo, www.svgrepo.com, Generator: SVG Repo Mixer Tools -->
<svg fill="#000000" width="800px" height="800px" viewBox="0 0 64 64" xmlns="http://www.w3.org/2000/svg">
<title/>
<g id="Sunrise">
<path d="M32,16a1,1,0,0,0,1-1V6a1,1,0,0,0-2,0v9A1,1,0,0,0,32,16Z"/>
<path d="M17.15,21.5645A1,1,0,0,0,18.5645,20.15l-4.2422-4.2422a1,1,0,1,0-1.4141,1.4141Z"/>
<path d="M13,35a1,1,0,0,0-1-1H3a1,1,0,0,0,0,2h9A1,1,0,0,0,13,35Z"/>
<path d="M61,34H52a1,1,0,0,0,0,2h9a1,1,0,0,0,0-2Z"/>
<path d="M46.1426,21.8574a.9967.9967,0,0,0,.707-.2929l4.2422-4.2422a1,1,0,0,0-1.4141-1.4141L45.4355,20.15a1,1,0,0,0,.7071,1.707Z"/>
<path d="M19.306,43H44.694a15,15,0,1,0-25.388,0Z"/>
<path d="M54,45H10a1,1,0,0,0,0,2H54a1,1,0,0,0,0-2Z"/>
<path d="M46,57H18a1,1,0,0,0,0,2H46a1,1,0,0,0,0-2Z"/>
<path d="M50,51H14a1,1,0,0,0,0,2H50a1,1,0,0,0,0-2Z"/>
</g>
</svg>