<?xml version="1.0" encoding="utf-8"?>

<!-- Uploaded to: SVG Repo, www.svgrepo.com, Generator: SVG Repo Mixer Tools -->
<svg fill="#000000" height="800px" width="800px" version="1.1" id="Icons" xmlns="http://www.w3.org/2000/svg" xmlns:xlink="http://www.w3.org/1999/xlink" 
	 viewBox="0 0 32 32" xml:space="preserve">
<g>
	<path d="M13,30c-0.2,0-0.4-0.1-0.6-0.2c-0.5-0.3-0.6-0.9-0.3-1.4l3-4.4H13c-0.4,0-0.7-0.2-0.9-0.5s-0.2-0.7,0-1l4-6
		c0.3-0.5,0.9-0.6,1.4-0.3c0.5,0.3,0.6,0.9,0.3,1.4l-3,4.4H17c0.4,0,0.7,0.2,0.9,0.5s0.2,0.7,0,1l-4,6C13.6,29.8,13.3,30,13,30z"/>
</g>
<path d="M19,4c-4.4,0-8.2,2.8-9.5,7C5.9,11,3,13.9,3,17.5C3,21.1,5.9,24,9.5,24l0.7,0c-0.3-0.9-0.2-1.9,0.3-2.7l4-6
	c0.4-0.7,1.1-1.1,1.9-1.3c0.8-0.2,1.6,0,2.3,0.4c0.7,0.4,1.1,1.1,1.3,1.9c0.2,0.8,0,1.6-0.4,2.3l-1.1,1.7c0.5,0.3,1,0.7,1.3,1.2
	c0.4,0.7,0.4,1.5,0.2,2.2l1,0c0.1,0,0.1,0,0.2,0c4.6-1,8-5.1,8-9.8C29,8.5,24.5,4,19,4z"/>
</svg>