<?xml version="1.0" encoding="utf-8"?>

<!-- Uploaded to: SVG Repo, www.svgrepo.com, Generator: SVG Repo Mixer Tools -->
<svg fill="#000000" height="800px" width="800px" version="1.1" id="Icons" xmlns="http://www.w3.org/2000/svg" xmlns:xlink="http://www.w3.org/1999/xlink" 
	 viewBox="0 0 32 32" xml:space="preserve">
<g>
	<path d="M16.7,30c-0.2,0-0.4-0.1-0.6-0.2c-0.5-0.3-0.6-0.9-0.3-1.4l2.3-3.4h-1.5c-0.4,0-0.7-0.2-0.9-0.5c-0.2-0.3-0.2-0.7,0-1
		l3.3-5c0.3-0.5,0.9-0.6,1.4-0.3c0.5,0.3,0.6,0.9,0.3,1.4L18.5,23H20c0.4,0,0.7,0.2,0.9,0.5c0.2,0.3,0.2,0.7,0,1l-3.3,5
		C17.3,29.8,17,30,16.7,30z"/>
</g>
<path d="M21.1,7c-3.9,0-7.3,2.5-8.4,6.2C9.5,13.3,7,15.9,7,19.1c0,3.2,2.6,5.9,5.9,5.9c0,0,0,0,0,0l1,0c-0.3-0.9-0.2-1.8,0.3-2.6
	l3.3-5c0.4-0.7,1.1-1.1,1.9-1.3c0.8-0.2,1.6,0,2.3,0.4c0.7,0.4,1.1,1.1,1.3,1.9c0.2,0.8,0,1.6-0.4,2.3l-0.6,1
	c0.3,0.3,0.6,0.6,0.8,0.9c0.3,0.6,0.4,1.3,0.3,1.9l1.1-0.1c0.1,0,0.2,0,0.3-0.1C27.8,23,30,19.7,30,16C30,11,26,7,21.1,7z"/>
<path d="M11.3,11.4c1-2.2,2.7-4,4.8-5.1c-1.4-3.1-4.9-5-8.5-4.1C7.1,2.3,6.8,2.7,6.8,3.2c0,0.4,0.3,0.8,0.7,1
	c1.1,0.4,1.8,1.3,1.8,2.4c0,1.4-1.2,2.6-2.6,2.6c-1.1,0-2.1-0.7-2.5-1.8C4,7,3.6,6.7,3.2,6.7c-0.4,0-0.8,0.3-0.9,0.8
	C2.1,8.1,2,8.7,2,9.3c0,2.7,1.5,5.1,3.8,6.4C6.9,13.5,8.9,11.9,11.3,11.4z"/>
</svg>