<?xml version="1.0" encoding="utf-8"?>

<!-- Uploaded to: SVG Repo, www.svgrepo.com, Generator: SVG Repo Mixer Tools -->
<svg fill="#000000" height="800px" width="800px" version="1.1" id="Icons" xmlns="http://www.w3.org/2000/svg" xmlns:xlink="http://www.w3.org/1999/xlink" 
	 viewBox="0 0 32 32" xml:space="preserve">
<path d="M31,15h-3.1c0-0.3-0.1-0.7-0.1-1H29c0.6,0,1-0.4,1-1s-0.4-1-1-1h-1.6c-2-6.3-8.6-10.1-15.2-8.7c-0.2,0.1-0.5,0.1-0.7,0.2
	l-0.1,0c-0.4,0.1-0.7,0.5-0.7,1c0,0.2,0.1,0.4,0.2,0.6c3.6,0.5,6.4,3.3,7.1,6.9H6c-0.6,0-1,0.4-1,1s0.4,1,1,1h12
	c0,0.3-0.1,0.7-0.1,1H1c-0.6,0-1,0.4-1,1s0.4,1,1,1h16.2c-0.2,0.3-0.3,0.7-0.5,1H11c-0.6,0-1,0.4-1,1s0.4,1,1,1h4
	c-1.5,1.2-3.4,2-5.5,2c-2.4,0-4.5-1-6-2.5c-0.1,0-0.2,0.1-0.2,0.1c-0.4,0.3-0.5,0.7-0.3,1.2c2,5.1,6.8,8.3,12,8.3
	c1,0,1.9-0.1,2.9-0.3c3.4-0.8,6.3-2.8,8.1-5.7c0.6-0.9,1-1.9,1.4-3H28c0.6,0,1-0.4,1-1s-0.4-1-1-1h-0.2c0.1-0.3,0.1-0.7,0.1-1h3
	c0.6,0,1-0.4,1-1S31.6,15,31,15z M20,12h6c0.6,0,1,0.4,1,1s-0.4,1-1,1h-6c-0.6,0-1-0.4-1-1S19.4,12,20,12z M26,20h-8
	c-0.6,0-1-0.4-1-1s0.4-1,1-1h8c0.6,0,1,0.4,1,1S26.6,20,26,20z M27,17h-8c-0.6,0-1-0.4-1-1s0.4-1,1-1h8c0.6,0,1,0.4,1,1
	S27.6,17,27,17z"/>
</svg>