<?xml version="1.0" encoding="utf-8"?>

<!-- Uploaded to: SVG Repo, www.svgrepo.com, Generator: SVG Repo Mixer Tools -->
<svg fill="#000000" height="800px" width="800px" version="1.1" id="Icons" xmlns="http://www.w3.org/2000/svg" xmlns:xlink="http://www.w3.org/1999/xlink" 
	 viewBox="0 0 32 32" xml:space="preserve">
<g>
	<circle cx="15" cy="27" r="3"/>
	<circle cx="20" cy="22" r="3"/>
	<circle cx="10" cy="22" r="3"/>
	<path d="M15,23c0.6,0,1-0.4,1-1v-2c0-0.6-0.4-1-1-1s-1,0.4-1,1v2C14,22.6,14.4,23,15,23z"/>
	<path d="M14.3,17.7c0.2,0.2,0.4,0.3,0.7,0.3c0.1,0,0.3,0,0.4-0.1s0.2-0.1,0.3-0.2c0.1-0.1,0.2-0.2,0.2-0.3C16,17.3,16,17.1,16,17
		s0-0.3-0.1-0.4c-0.1-0.1-0.1-0.2-0.2-0.3c-0.3-0.3-0.7-0.4-1.1-0.2c-0.1,0-0.2,0.1-0.3,0.2c-0.1,0.1-0.2,0.2-0.2,0.3
		c0,0.1-0.1,0.3-0.1,0.4s0,0.3,0.1,0.4C14.1,17.5,14.2,17.6,14.3,17.7z"/>
</g>
<g>
	<path d="M19,2c-4.4,0-8.2,2.8-9.5,7C5.9,9,3,11.9,3,15.5c0,1.9,0.9,3.7,2.3,4.9c0.7-2,2.5-3.4,4.7-3.4c0.7,0,1.4,0.2,2,0.4
		c0-0.1,0-0.3,0-0.4c0-0.4,0.1-0.8,0.2-1.1c0.1-0.3,0.3-0.6,0.6-0.9l0.1-0.1c0.3-0.3,0.6-0.4,0.9-0.6c1.1-0.5,2.4-0.2,3.3,0.6
		l0.1,0.1c0.2,0.3,0.4,0.6,0.6,0.9c0.2,0.4,0.2,0.8,0.2,1.2c0,0.2,0,0.3,0,0.4c0.6-0.3,1.3-0.4,2-0.4c2.1,0,3.9,1.4,4.7,3.2
		c2.7-1.8,4.3-4.9,4.3-8.2C29,6.5,24.5,2,19,2z"/>
</g>
</svg>