<?xml version="1.0" encoding="utf-8"?>

<!-- Uploaded to: SVG Repo, www.svgrepo.com, Generator: SVG Repo Mixer Tools -->
<svg fill="#000000" height="800px" width="800px" version="1.1" id="Icons" xmlns="http://www.w3.org/2000/svg" xmlns:xlink="http://www.w3.org/1999/xlink" 
	 viewBox="0 0 32 32" xml:space="preserve">
<g>
	<path d="M17,31c-0.1,0-0.2,0-0.3-0.1c-0.5-0.2-0.8-0.7-0.6-1.3l2-6c0.2-0.5,0.7-0.8,1.3-0.6c0.5,0.2,0.8,0.7,0.6,1.3l-2,6
		C17.8,30.7,17.4,31,17,31z"/>
</g>
<g>
	<path d="M14,29c-0.1,0-0.2,0-0.3-0.1c-0.5-0.2-0.8-0.7-0.6-1.3l2-6c0.2-0.5,0.7-0.8,1.3-0.6c0.5,0.2,0.8,0.7,0.6,1.3l-2,6
		C14.8,28.7,14.4,29,14,29z"/>
</g>
<g>
	<path d="M21,29c-0.1,0-0.2,0-0.3-0.1c-0.5-0.2-0.8-0.7-0.6-1.3l2-6c0.2-0.5,0.7-0.8,1.3-0.6c0.5,0.2,0.8,0.7,0.6,1.3l-2,6
		C21.8,28.7,21.4,29,21,29z"/>
</g>
<path d="M21.3,11c-3.4,0-6.3,2-7.3,5.1C11.2,16.2,9,18.4,9,21c0,1.9,1.1,3.5,2.7,4.4l1.4-4.3c0.3-0.8,0.8-1.4,1.5-1.7
	c0.7-0.4,1.5-0.4,2.3-0.2c0.8,0.3,1.4,0.8,1.7,1.5c0.1,0.1,0.1,0.2,0.1,0.4c0.4,0,0.8,0,1.1,0.1c0.1,0,0.1,0,0.2,0.1l0.1-0.2
	c0.3-0.8,0.8-1.4,1.5-1.7c0.7-0.4,1.5-0.4,2.3-0.2c0.8,0.3,1.4,0.8,1.7,1.5s0.4,1.5,0.2,2.3l-0.7,2c2.3-1.3,3.8-3.7,3.8-6.4
	C29,14.4,25.5,11,21.3,11z"/>
<path d="M12.5,14.2c1.6-3.2,5-5.2,8.7-5.2c0.2,0,0.4,0,0.6,0c-0.7-4.6-4.7-8-9.4-8c-0.8,0-1.6,0.1-2.4,0.3C9.7,1.4,9.4,1.8,9.4,2.2
	c0,0.4,0.3,0.8,0.7,1c1.6,0.5,2.6,2,2.6,3.6c0,2.1-1.7,3.9-3.9,3.9c-1.6,0-3.1-1.1-3.6-2.6c-0.1-0.4-0.6-0.7-1-0.7
	c-0.4,0-0.8,0.3-0.9,0.8C3.1,8.9,3,9.7,3,10.5c0,3.3,1.7,6.3,4.5,8C8.3,16.4,10.2,14.7,12.5,14.2z"/>
</svg>