<?xml version="1.0" encoding="utf-8"?>

<!-- Uploaded to: SVG Repo, www.svgrepo.com, Generator: SVG Repo Mixer Tools -->
<svg fill="#000000" height="800px" width="800px" version="1.1" id="Icons" xmlns="http://www.w3.org/2000/svg" xmlns:xlink="http://www.w3.org/1999/xlink" 
	 viewBox="0 0 32 32" xml:space="preserve">
<g>
	<path d="M16,7c-0.6,0-1-0.4-1-1V4c0-0.6,0.4-1,1-1s1,0.4,1,1v2C17,6.6,16.6,7,16,7z"/>
</g>
<g>
	<path d="M13.5,31c-1.9,0-3.5-1.6-3.5-3.5c0-0.6,0.4-1,1-1s1,0.4,1,1c0,0.8,0.7,1.5,1.5,1.5s1.5-0.7,1.5-1.5V19c0-0.6,0.4-1,1-1
		s1,0.4,1,1v8.5C17,29.4,15.4,31,13.5,31z"/>
</g>
<g>
	<path d="M24,15c-2.8,0-5-2.2-5-5c0-2.4,3.5-7.6,4.2-8.6c0.4-0.5,1.3-0.5,1.6,0c0.7,1,4.2,6.2,4.2,8.6C29,12.8,26.8,15,24,15z"/>
</g>
<path d="M24,17c-3.9,0-7-3.1-7-7c0-1.3,0.7-3,1.5-4.8C17.7,5.1,16.9,5,16,5C8.3,5,2,11.3,2,19c0,0.6,0.4,1,1,1h26c0.6,0,1-0.4,1-1
	c0-1.5-0.2-3-0.7-4.4C28,16.1,26.1,17,24,17z"/>
</svg>