<?xml version="1.0" encoding="utf-8"?>

<!-- Uploaded to: SVG Repo, www.svgrepo.com, Generator: SVG Repo Mixer Tools -->
<svg fill="#000000" height="800px" width="800px" version="1.1" id="Icons" xmlns="http://www.w3.org/2000/svg" xmlns:xlink="http://www.w3.org/1999/xlink" 
	 viewBox="0 0 32 32" xml:space="preserve">
<g>
	<path d="M19,23c0-0.6-0.4-1-1-1s-1,0.4-1,1c-0.6,0-1,0.4-1,1s0.4,1,1,1c0,0.6,0.4,1,1,1s1-0.4,1-1c0.6,0,1-0.4,1-1S19.6,23,19,23z"
		/>
	<path d="M15,27c0-0.6-0.4-1-1-1s-1,0.4-1,1c-0.6,0-1,0.4-1,1s0.4,1,1,1c0,0.6,0.4,1,1,1s1-0.4,1-1c0.6,0,1-0.4,1-1S15.6,27,15,27z"
		/>
	<path d="M23,27c0-0.6-0.4-1-1-1s-1,0.4-1,1c-0.6,0-1,0.4-1,1s0.4,1,1,1c0,0.6,0.4,1,1,1s1-0.4,1-1c0.6,0,1-0.4,1-1S23.6,27,23,27z"
		/>
</g>
<path d="M21.1,7c-3.9,0-7.3,2.5-8.4,6.2C9.5,13.3,7,15.9,7,19.1c0,2.9,2.1,5.3,4.9,5.8c0.5-0.6,1.3-0.9,2.1-0.9c0-1.1,0.6-2,1.4-2.6
	C16,20.6,16.9,20,18,20s2,0.6,2.6,1.4C21.4,22,22,22.9,22,24c0.7,0,1.3,0.2,1.7,0.6C27.5,23.4,30,20,30,16C30,11,26,7,21.1,7z"/>
<path d="M6.1,15.2c1.1-1.9,3-3.3,5.2-3.8c1.1-2.5,3.1-4.4,5.6-5.5C15.3,3,12,1.4,8.5,2.2C8.1,2.3,7.8,2.7,7.8,3.2
	c0,0.4,0.3,0.8,0.7,1c1.1,0.4,1.8,1.3,1.8,2.4c0,1.4-1.2,2.6-2.6,2.6c-1.1,0-2.1-0.7-2.5-1.8C5,7,4.6,6.7,4.2,6.7
	c-0.4,0-0.8,0.3-0.9,0.8C3.1,8.1,3,8.7,3,9.3C3,11.6,4.2,13.8,6.1,15.2z"/>
</svg>