<?xml version="1.0" encoding="utf-8"?>

<!-- Uploaded to: SVG Repo, www.svgrepo.com, Generator: SVG Repo Mixer Tools -->
<svg fill="#000000" height="800px" width="800px" version="1.1" id="Icons" xmlns="http://www.w3.org/2000/svg" xmlns:xlink="http://www.w3.org/1999/xlink" 
	 viewBox="0 0 32 32" xml:space="preserve">
<path d="M13,17.3V6c0-2.2-1.8-4-4-4S5,3.8,5,6v11.3c-1.9,1.3-3,3.5-3,5.7c0,3.9,3.1,7,7,7s7-3.1,7-7C16,20.7,14.9,18.6,13,17.3z
	 M9,27c-2.2,0-4-1.8-4-4c0-1.9,1.3-3.4,3-3.9V17c0-0.6,0.4-1,1-1s1,0.4,1,1v2.1c1.7,0.4,3,2,3,3.9C13,25.2,11.2,27,9,27z"/>
<path d="M28.8,12.8l-2.3,0.6L24,12l2.5-1.4l2.3,0.6c0.1,0,0.2,0,0.3,0c0.4,0,0.8-0.3,1-0.7c0.1-0.5-0.2-1.1-0.7-1.2l-1.8-0.5L28,7
	c0.1-0.5-0.2-1.1-0.7-1.2c-0.5-0.1-1.1,0.2-1.2,0.7l-0.6,2.3L23,10.3V7.4l1.7-1.7c0.4-0.4,0.4-1,0-1.4s-1-0.4-1.4,0L22,5.6l-1.3-1.3
	c-0.4-0.4-1-0.4-1.4,0s-0.4,1,0,1.4L21,7.4v2.9l-2.5-1.4l-0.6-2.3c-0.1-0.5-0.7-0.9-1.2-0.7C16.1,5.9,15.8,6.5,16,7l0.5,1.8
	l-1.8,0.5c-0.5,0.1-0.9,0.7-0.7,1.2c0.1,0.4,0.5,0.7,1,0.7c0.1,0,0.2,0,0.3,0l2.3-0.6L20,12l-2.5,1.4l-2.3-0.6
	c-0.5-0.1-1.1,0.2-1.2,0.7c-0.1,0.5,0.2,1.1,0.7,1.2l1.8,0.5L16,17c-0.1,0.5,0.2,1.1,0.7,1.2c0.1,0,0.2,0,0.3,0c0.4,0,0.8-0.3,1-0.7
	l0.6-2.3l2.5-1.4v2.9l-1.7,1.7c-0.4,0.4-0.4,1,0,1.4s1,0.4,1.4,0l1.3-1.3l1.3,1.3c0.2,0.2,0.5,0.3,0.7,0.3s0.5-0.1,0.7-0.3
	c0.4-0.4,0.4-1,0-1.4L23,16.6v-2.9l2.5,1.4l0.6,2.3c0.1,0.4,0.5,0.7,1,0.7c0.1,0,0.2,0,0.3,0c0.5-0.1,0.9-0.7,0.7-1.2l-0.5-1.8
	l1.8-0.5c0.5-0.1,0.9-0.7,0.7-1.2C29.9,13,29.3,12.7,28.8,12.8z"/>
</svg>