<?xml version="1.0" encoding="utf-8"?>

<!-- Uploaded to: SVG Repo, www.svgrepo.com, Generator: SVG Repo Mixer Tools -->
<svg fill="#000000" height="800px" width="800px" version="1.1" id="Icons" xmlns="http://www.w3.org/2000/svg" xmlns:xlink="http://www.w3.org/1999/xlink" 
	 viewBox="0 0 32 32" xml:space="preserve">
<g>
	<path d="M9,28c-0.1,0-0.3,0-0.4-0.1c-0.5-0.2-0.7-0.8-0.5-1.3l3-7c0.2-0.5,0.8-0.7,1.3-0.5c0.5,0.2,0.7,0.8,0.5,1.3l-3,7
		C9.8,27.8,9.4,28,9,28z"/>
</g>
<g>
	<path d="M12,30c-0.1,0-0.3,0-0.4-0.1c-0.5-0.2-0.7-0.8-0.5-1.3l3-7c0.2-0.5,0.8-0.7,1.3-0.5c0.5,0.2,0.7,0.8,0.5,1.3l-3,7
		C12.8,29.8,12.4,30,12,30z"/>
</g>
<g>
	<path d="M17,28c-0.1,0-0.3,0-0.4-0.1c-0.5-0.2-0.7-0.8-0.5-1.3l3-7c0.2-0.5,0.8-0.7,1.3-0.5c0.5,0.2,0.7,0.8,0.5,1.3l-3,7
		C17.8,27.8,17.4,28,17,28z"/>
</g>
<path d="M19,4c-4.4,0-8.2,2.8-9.5,7C5.9,11,3,13.9,3,17.5c0,2.4,1.3,4.6,3.4,5.7c0.3,0.1,0.5,0.3,0.8,0.4l2-4.8
	c0.3-0.7,0.9-1.3,1.6-1.6c0.7-0.3,1.6-0.3,2.3,0c0.7,0.3,1.3,0.9,1.6,1.6c0,0,0,0.1,0,0.1c0.5,0,0.9,0,1.4,0.2
	c0.3,0.1,0.5,0.3,0.7,0.4l0.4-0.9c0.3-0.7,0.9-1.3,1.6-1.6c0.7-0.3,1.6-0.3,2.3,0c0.7,0.3,1.3,0.9,1.6,1.6c0.3,0.7,0.3,1.6,0,2.3
	l-1,2.4c4.2-1.2,7.3-5,7.3-9.6C29,8.5,24.5,4,19,4z"/>
</svg>