<?xml version="1.0" encoding="utf-8"?>

<!-- Uploaded to: SVG Repo, www.svgrepo.com, Generator: SVG Repo Mixer Tools -->
<svg fill="#000000" height="800px" width="800px" version="1.1" id="Icons" xmlns="http://www.w3.org/2000/svg" xmlns:xlink="http://www.w3.org/1999/xlink" 
	 viewBox="0 0 32 32" xml:space="preserve">
<g>
	<path d="M21.1,30h-8.3C9.6,30,7,27.4,7,24.1c0-3.2,2.5-5.8,5.7-5.9c1.2-3.7,4.5-6.2,8.4-6.2c4.9,0,8.9,4,8.9,9S26,30,21.1,30z"/>
</g>
<path d="M6,20.2c1.1-1.9,3-3.4,5.2-3.9c1.7-3.7,5.3-6.2,9.4-6.4C19.4,5.2,14.4,2,9.2,3.3C8.7,3.4,8.4,3.8,8.4,4.2s0.3,0.8,0.7,1
	c1.6,0.5,2.6,2,2.6,3.6c0,2.1-1.7,3.9-3.9,3.9c-1.6,0-3.1-1.1-3.6-2.6c-0.1-0.4-0.5-0.7-1-0.7c-0.4,0-0.8,0.3-0.9,0.8
	C2.1,10.9,2,11.7,2,12.5C2,15.6,3.5,18.5,6,20.2z"/>
</svg>