<?xml version="1.0" encoding="utf-8"?>

<!-- Uploaded to: SVG Repo, www.svgrepo.com, Generator: SVG Repo Mixer Tools -->
<svg fill="#000000" height="800px" width="800px" version="1.1" id="Icons" xmlns="http://www.w3.org/2000/svg" xmlns:xlink="http://www.w3.org/1999/xlink" 
	 viewBox="0 0 32 32" xml:space="preserve">
<g>
	<path d="M30,8c0-3.9-7.2-6-14-6S2,4.1,2,8s7.2,6,14,6c3.5,0,7-0.5,9.7-1.6c0.2,0.2,0.3,0.4,0.3,0.6c0,1.2-4,3-10,3
		c-4.7,0-8.1-1.1-9.4-2.2c-0.4-0.4-1.1-0.3-1.4,0.1c-0.4,0.4-0.3,1.1,0.1,1.4c0.8,0.7,2,1.2,3.5,1.7c-0.7,0.6-1,1.2-1,1.9
		c0,2.6,4.7,4,9.3,4c2.6,0,5.2-0.4,7-1.3c0.8,0.3,1,0.7,1,0.8c0,0.4-1.7,1.5-5,1.5c-0.6,0-1,0.4-1,1s0.4,1,1,1c3.5,0,7-1.2,7-3.5
		c0-0.5-0.2-1.3-1.3-2.1c0.3-0.4,0.5-0.9,0.5-1.4c0-0.6-0.4-1-1-1s-1,0.4-1,1c0,0.2-0.2,0.4-0.7,0.7c0,0,0,0-0.1,0
		C22.4,20.3,20.2,21,17,21c-4.7,0-7.3-1.4-7.3-2c0-0.2,0.5-0.8,2.1-1.3c1.3,0.2,2.7,0.3,4.2,0.3c6,0,12-1.7,12-5
		c0-0.4-0.1-0.9-0.5-1.5C29,10.6,30,9.4,30,8z"/>
	<path d="M17.5,28c-2.3,0-3.5-0.9-3.5-1.2c0-0.2,0.9-1,2.9-1.1c0.6,0,1-0.5,0.9-1.1s-0.5-1-1.1-0.9c-2.8,0.2-4.7,1.5-4.7,3.1
		c0,1.8,2.4,3.2,5.5,3.2c0.6,0,1-0.4,1-1S18.1,28,17.5,28z"/>
</g>
</svg>