<?xml version="1.0" encoding="utf-8"?>

<!-- Uploaded to: SVG Repo, www.svgrepo.com, Generator: SVG Repo Mixer Tools -->
<svg fill="#000000" height="800px" width="800px" version="1.1" id="Icons" xmlns="http://www.w3.org/2000/svg" xmlns:xlink="http://www.w3.org/1999/xlink" 
	 viewBox="0 0 32 32" xml:space="preserve">
<path d="M16,17.3V6c0-2.2-1.8-4-4-4S8,3.8,8,6v11.3c-1.9,1.3-3,3.5-3,5.7c0,3.9,3.1,7,7,7s7-3.1,7-7C19,20.7,17.9,18.6,16,17.3z
	 M12,27c-2.2,0-4-1.8-4-4c0-1.9,1.3-3.4,3-3.9V13c0-0.6,0.4-1,1-1s1,0.4,1,1v6.1c1.7,0.4,3,2,3,3.9C16,25.2,14.2,27,12,27z"/>
<path d="M20,7h5c0.6,0,1-0.4,1-1s-0.4-1-1-1h-5c-0.6,0-1,0.4-1,1S19.4,7,20,7z"/>
<path d="M20,11h2c0.6,0,1-0.4,1-1s-0.4-1-1-1h-2c-0.6,0-1,0.4-1,1S19.4,11,20,11z"/>
<path d="M25,13h-5c-0.6,0-1,0.4-1,1s0.4,1,1,1h5c0.6,0,1-0.4,1-1S25.6,13,25,13z"/>
<path d="M22,17h-2c-0.6,0-1,0.4-1,1s0.4,1,1,1h2c0.6,0,1-0.4,1-1S22.6,17,22,17z"/>
</svg>