<?xml version="1.0" encoding="utf-8"?>

<!-- Uploaded to: SVG Repo, www.svgrepo.com, Generator: SVG Repo Mixer Tools -->
<svg fill="#000000" height="800px" width="800px" version="1.1" id="Icons" xmlns="http://www.w3.org/2000/svg" xmlns:xlink="http://www.w3.org/1999/xlink" 
	 viewBox="0 0 32 32" xml:space="preserve">
<path d="M20,17.3V6c0-2.2-1.8-4-4-4s-4,1.8-4,4v11.3c-1.9,1.3-3,3.5-3,5.7c0,3.9,3.1,7,7,7s7-3.1,7-7C23,20.7,21.9,18.6,20,17.3z
	 M16,27c-2.2,0-4-1.8-4-4c0-1.9,1.3-3.4,3-3.9V13c0-0.6,0.4-1,1-1s1,0.4,1,1v6.1c1.7,0.4,3,2,3,3.9C20,25.2,18.2,27,16,27z"/>
</svg>