<?xml version="1.0" encoding="utf-8"?>

<!-- Uploaded to: SVG Repo, www.svgrepo.com, Generator: SVG Repo Mixer Tools -->
<svg fill="#000000" height="800px" width="800px" version="1.1" id="Icons" xmlns="http://www.w3.org/2000/svg" xmlns:xlink="http://www.w3.org/1999/xlink" 
	 viewBox="0 0 32 32" xml:space="preserve">
<g>
	<path d="M28,28h-9.9c1.1-1.8,2.7-3.2,4.5-4.3C23.1,24.5,24,25,25,25c1.7,0,3-1.3,3-3s-1.3-3-3-3c-1.6,0-2.8,1.2-3,2.7
		c-2.7,1.4-4.9,3.6-6.3,6.3h-0.4c-1.1-4-3.8-7.5-7.4-9.6c0-0.1,0-0.2,0-0.4c0-1.7-1.3-3-3-3s-3,1.3-3,3s1.3,3,3,3
		c0.8,0,1.5-0.3,2.1-0.8c2.9,1.8,5.1,4.6,6.2,7.8H3c-0.6,0-1,0.4-1,1s0.4,1,1,1h25c0.6,0,1-0.4,1-1S28.6,28,28,28z"/>
	<path d="M19,20c1.7,0,3-1.3,3-3s-1.3-3-3-3s-3,1.3-3,3S17.3,20,19,20z"/>
	<path d="M12,15c1.7,0,3-1.3,3-3s-1.3-3-3-3s-3,1.3-3,3S10.3,15,12,15z"/>
	<path d="M12,8c0.6,0,1-0.4,1-1V3c0-0.6-0.4-1-1-1s-1,0.4-1,1v4C11,7.6,11.4,8,12,8z"/>
	<path d="M19,12c0.6,0,1-0.4,1-1V7c0-0.6-0.4-1-1-1s-1,0.4-1,1v4C18,11.6,18.4,12,19,12z"/>
	<path d="M18.3,3.7C18.5,3.9,18.7,4,19,4c0.1,0,0.3,0,0.4-0.1s0.2-0.1,0.3-0.2c0.1-0.1,0.2-0.2,0.2-0.3C20,3.3,20,3.1,20,3
		c0-0.3-0.1-0.5-0.3-0.7C19.4,2,19,1.9,18.6,2.1c-0.1,0-0.2,0.1-0.3,0.2C18.1,2.5,18,2.7,18,3c0,0.1,0,0.3,0.1,0.4
		C18.1,3.5,18.2,3.6,18.3,3.7z"/>
</g>
</svg>