<?xml version="1.0" encoding="utf-8"?>

<!-- Uploaded to: SVG Repo, www.svgrepo.com, Generator: SVG Repo Mixer Tools -->
<svg fill="#000000" height="800px" width="800px" version="1.1" id="Icons" xmlns="http://www.w3.org/2000/svg" xmlns:xlink="http://www.w3.org/1999/xlink" 
	 viewBox="0 0 32 32" xml:space="preserve">
<g>
	<path d="M22.4,29H16c-2.8,0-5-2.2-5-5c0-2.5,1.8-4.5,4.2-4.9c1-3,3.9-5.1,7.2-5.1c4.2,0,7.6,3.4,7.6,7.5S26.6,29,22.4,29z"/>
</g>
<path d="M13.8,17.4c1.6-3.3,4.9-5.4,8.7-5.4c2.1,0,4,0.7,5.5,1.8c0-0.3,0.1-0.5,0.1-0.8c0-5.5-4.5-10-10-10c-4.4,0-8.2,2.8-9.5,7
	C4.9,10,2,12.9,2,16.5C2,20.1,4.9,23,8.5,23h0.6C9.5,20.4,11.3,18.3,13.8,17.4z"/>
</svg>