<?xml version="1.0" encoding="utf-8"?>

<!-- Uploaded to: SVG Repo, www.svgrepo.com, Generator: SVG Repo Mixer Tools -->
<svg fill="#000000" height="800px" width="800px" version="1.1" id="Icons" xmlns="http://www.w3.org/2000/svg" xmlns:xlink="http://www.w3.org/1999/xlink" 
	 viewBox="0 0 32 32" xml:space="preserve">
<g>
	<path d="M16,30c-2.8,0-5-2.2-5-5c0-2.4,3.5-7.6,4.2-8.6c0.4-0.5,1.3-0.5,1.6,0c0.7,1,4.2,6.2,4.2,8.6C21,27.8,18.8,30,16,30z"/>
</g>
<path d="M19,3c-4.4,0-8.2,2.8-9.5,7C5.9,10,3,12.9,3,16.5c0,2.4,1.3,4.6,3.4,5.7c0.9,0.5,1.9,0.8,3,0.8c0.8-2.6,2.8-5.8,4.2-7.7
	C14.1,14.5,15,14,16,14s1.9,0.5,2.5,1.3c1.2,1.8,3,4.6,4,7.1C26.3,21,29,17.3,29,13C29,7.5,24.5,3,19,3z"/>
</svg>