<?xml version="1.0" encoding="utf-8"?>

<!-- Uploaded to: SVG Repo, www.svgrepo.com, Generator: SVG Repo Mixer Tools -->
<svg fill="#000000" height="800px" width="800px" version="1.1" id="Icons" xmlns="http://www.w3.org/2000/svg" xmlns:xlink="http://www.w3.org/1999/xlink" 
	 viewBox="0 0 32 32" xml:space="preserve">
<g>
	<path d="M21.4,22H15c-2.8,0-5-2.2-5-5c0-2.5,1.8-4.5,4.2-4.9c1-3,3.9-5.1,7.2-5.1c4.2,0,7.6,3.4,7.6,7.5S25.6,22,21.4,22z"/>
</g>
<path d="M15,24c-3.9,0-7-3.1-7-7c0-3,2-5.7,4.8-6.6C14,7.9,16.3,6,19,5.3V5c0-1.7-1.3-3-3-3h-1v2.3C15,5.8,13.8,7,12.3,7H9.7
	C8.2,7,7,5.8,7,4.3V2H6C4.3,2,3,3.3,3,5v22c0,1.7,1.3,3,3,3h10c1.7,0,3-1.3,3-3v-3H15z M14,26H8c-0.6,0-1-0.4-1-1s0.4-1,1-1h6
	c0.6,0,1,0.4,1,1S14.6,26,14,26z"/>
</svg>