<?xml version="1.0" encoding="utf-8"?>

<!-- Uploaded to: SVG Repo, www.svgrepo.com, Generator: SVG Repo Mixer Tools -->
<svg fill="#000000" height="800px" width="800px" version="1.1" id="Icons" xmlns="http://www.w3.org/2000/svg" xmlns:xlink="http://www.w3.org/1999/xlink" 
	 viewBox="0 0 32 32" xml:space="preserve">
<path d="M21,9c-4.4,0-8,3.6-8,8c0,0.6,0.4,1,1,1h6v3.6c0,0.2-0.2,0.4-0.3,0.4s-0.3-0.2-0.3-0.4c0-0.6-0.4-1-1-1s-1,0.4-1,1
	c0,1.3,1.1,2.4,2.3,2.4s2.3-1.1,2.3-2.4V18h6c0.6,0,1-0.4,1-1C29,12.6,25.4,9,21,9z"/>
<path d="M15.3,21.6c0-0.6,0.2-1.1,0.5-1.6H14c-1.7,0-3-1.3-3-3c0-4.5,2.9-8.3,7-9.6V5c0-1.7-1.3-3-3-3h-1v2.3C14,5.8,12.8,7,11.3,7
	H8.7C7.2,7,6,5.8,6,4.3V2H5C3.3,2,2,3.3,2,5v22c0,1.7,1.3,3,3,3h10c1.7,0,3-1.3,3-3v-1.4C16.4,25,15.3,23.4,15.3,21.6z M13,26H7
	c-0.6,0-1-0.4-1-1s0.4-1,1-1h6c0.6,0,1,0.4,1,1S13.6,26,13,26z"/>
</svg>