<?xml version="1.0" encoding="utf-8"?>

<!-- Uploaded to: SVG Repo, www.svgrepo.com, Generator: SVG Repo Mixer Tools -->
<svg fill="#000000" height="800px" width="800px" version="1.1" id="Icons" xmlns="http://www.w3.org/2000/svg" xmlns:xlink="http://www.w3.org/1999/xlink" 
	 viewBox="0 0 32 32" xml:space="preserve">
<g>
	<path d="M21,10.2c-3.2,0-5.8,2.6-5.8,5.8s2.6,5.8,5.8,5.8s5.8-2.6,5.8-5.8S24.2,10.2,21,10.2z"/>
	<path d="M21,9.1c0.6,0,1-0.4,1-1V7c0-0.6-0.4-1-1-1s-1,0.4-1,1v1.1C20,8.6,20.4,9.1,21,9.1z"/>
	<path d="M14.1,16c0-0.6-0.4-1-1-1H12c-0.6,0-1,0.4-1,1s0.4,1,1,1h1.1C13.6,17,14.1,16.6,14.1,16z"/>
	<path d="M21,22.9c-0.6,0-1,0.4-1,1V25c0,0.6,0.4,1,1,1s1-0.4,1-1v-1.1C22,23.4,21.6,22.9,21,22.9z"/>
	<path d="M30,15h-1.1c-0.6,0-1,0.4-1,1s0.4,1,1,1H30c0.6,0,1-0.4,1-1S30.6,15,30,15z"/>
	<path d="M14.7,11.1c0.2,0.2,0.5,0.3,0.7,0.3s0.5-0.1,0.7-0.3c0.4-0.4,0.4-1,0-1.4l-0.8-0.8c-0.4-0.4-1-0.4-1.4,0
		c-0.4,0.4-0.4,1,0,1.4L14.7,11.1z"/>
	<path d="M14.7,20.9l-0.8,0.8c-0.4,0.4-0.4,1,0,1.4c0.2,0.2,0.5,0.3,0.7,0.3s0.5-0.1,0.7-0.3l0.8-0.8c0.4-0.4,0.4-1,0-1.4
		C15.7,20.5,15.1,20.5,14.7,20.9z"/>
	<path d="M27.3,20.9c-0.4-0.4-1-0.4-1.4,0c-0.4,0.4-0.4,1,0,1.4l0.8,0.8c0.2,0.2,0.5,0.3,0.7,0.3s0.5-0.1,0.7-0.3
		c0.4-0.4,0.4-1,0-1.4L27.3,20.9z"/>
	<path d="M26.6,11.4c0.3,0,0.5-0.1,0.7-0.3l0.8-0.8c0.4-0.4,0.4-1,0-1.4c-0.4-0.4-1-0.4-1.4,0l-0.8,0.8c-0.4,0.4-0.4,1,0,1.4
		C26.1,11.3,26.3,11.4,26.6,11.4z"/>
</g>
<path d="M18,23.2C18,23.2,17.9,23.2,18,23.2c-0.2,0.2-0.3,0.3-0.5,0.5l-0.8,0.8c-0.6,0.6-1.3,0.9-2.1,0.9c-0.2,0-0.5,0-0.7-0.1
	C13.8,25.7,13.5,26,13,26H7c-0.6,0-1-0.4-1-1s0.4-1,1-1h5.1c-0.3-0.5-0.5-1-0.5-1.6c0-0.8,0.3-1.6,0.9-2.1l0.8-0.8
	c0.2-0.2,0.3-0.3,0.5-0.4c0,0,0-0.1-0.1-0.2c-0.2,0-0.4,0.1-0.6,0.1H12c-1.7,0-3-1.3-3-3s1.3-3,3-3h1.1c0.2,0,0.4,0,0.6,0.1
	c0-0.1,0-0.1,0.1-0.2c-0.2-0.1-0.4-0.2-0.5-0.4h0l-0.8-0.8c-0.6-0.6-0.9-1.3-0.9-2.1c0-0.8,0.3-1.6,0.9-2.1c1.2-1.2,3.1-1.2,4.2,0
	l0.8,0.8c0.2,0.2,0.3,0.3,0.4,0.5c0,0,0.1,0,0.1,0V8.1V7V5c0-1.7-1.3-3-3-3h-1v2.3C14,5.8,12.8,7,11.3,7H8.7C7.2,7,6,5.8,6,4.3V2H5
	C3.3,2,2,3.3,2,5v22c0,1.7,1.3,3,3,3h10c1.7,0,3-1.3,3-3v-2v-1.1V23.2z"/>
</svg>