<?xml version="1.0" encoding="utf-8"?>

<!-- Uploaded to: SVG Repo, www.svgrepo.com, Generator: SVG Repo Mixer Tools -->
<svg fill="#000000" height="800px" width="800px" version="1.1" id="Icons" xmlns="http://www.w3.org/2000/svg" xmlns:xlink="http://www.w3.org/1999/xlink" 
	 viewBox="0 0 32 32" xml:space="preserve">
<path d="M23,28c-1.1,0-2.1-0.7-2.5-1.8c0-0.1,0-0.2-0.1-0.2h-8.9c0,0.1,0,0.2-0.1,0.2C11.1,27.3,10.1,28,9,28c-0.6,0-1,0.4-1,1
	s0.4,1,1,1h14c0.6,0,1-0.4,1-1S23.6,28,23,28z"/>
<path d="M27,3H5C3.3,3,2,4.3,2,6v15c0,1.7,1.3,3,3,3h6.9h8.1H27c1.7,0,3-1.3,3-3V6C30,4.3,28.7,3,27,3z M15,7c0-0.6,0.4-1,1-1
	s1,0.4,1,1v3c0,0.6-0.4,1-1,1s-1-0.4-1-1V7z M6.1,10.1c0.4-0.4,1-0.4,1.4,0l2.1,2.1c0.4,0.4,0.4,1,0,1.4c-0.2,0.2-0.5,0.3-0.7,0.3
	s-0.5-0.1-0.7-0.3l-2.1-2.1C5.7,11.1,5.7,10.5,6.1,10.1z M23,21H9c-0.6,0-1-0.4-1-1c0-4.4,3.6-8,8-8s8,3.6,8,8
	C24,20.6,23.6,21,23,21z M25.9,11.5l-2.1,2.1c-0.2,0.2-0.5,0.3-0.7,0.3s-0.5-0.1-0.7-0.3c-0.4-0.4-0.4-1,0-1.4l2.1-2.1
	c0.4-0.4,1-0.4,1.4,0S26.3,11.1,25.9,11.5z"/>
</svg>