<?xml version="1.0" encoding="utf-8"?>

<!-- Uploaded to: SVG Repo, www.svgrepo.com, Generator: SVG Repo Mixer Tools -->
<svg fill="#000000" height="800px" width="800px" version="1.1" id="Icons" xmlns="http://www.w3.org/2000/svg" xmlns:xlink="http://www.w3.org/1999/xlink" 
	 viewBox="0 0 32 32" xml:space="preserve">
<g>
	<path d="M23,28c-1.1,0-2.1-0.7-2.5-1.8c0-0.1,0-0.2-0.1-0.2h-8.9c0,0.1,0,0.2-0.1,0.2C11.1,27.3,10.1,28,9,28c-0.6,0-1,0.4-1,1
		s0.4,1,1,1h14c0.6,0,1-0.4,1-1S23.6,28,23,28z"/>
	<path d="M27,3H5C3.3,3,2,4.3,2,6v15c0,1.7,1.3,3,3,3h6.9h8.1H27c1.7,0,3-1.3,3-3V6C30,4.3,28.7,3,27,3z M18,19h-6.8
		C9.5,19,8,17.5,8,15.7s1.5-3.3,3.3-3.3c0.5,0,0.9-0.4,1-0.9C12.9,8.9,15.3,7,18,7c3.3,0,6,2.7,6,6S21.3,19,18,19z"/>
</g>
</svg>