<?xml version="1.0" encoding="utf-8"?>

<!-- Uploaded to: SVG Repo, www.svgrepo.com, Generator: SVG Repo Mixer Tools -->
<svg fill="#000000" height="800px" width="800px" version="1.1" id="Icons" xmlns="http://www.w3.org/2000/svg" xmlns:xlink="http://www.w3.org/1999/xlink" 
	 viewBox="0 0 32 32" xml:space="preserve">
<path d="M16,2C9.9,2,5,6.8,5,12.8c0,9.1,10,16.7,10.4,17c0.2,0.1,0.4,0.2,0.6,0.2s0.4-0.1,0.6-0.2c0.4-0.3,10.4-8,10.4-17
	C27,6.8,22.1,2,16,2z M22,13.9h-5v4.9c0,1.2-1,2.2-2.1,2.2s-2.1-1-2.1-2.2c0-0.6,0.4-1,1-1s1,0.4,1,1c0,0.2,0.3,0.2,0.3,0v-4.9h-5
	c-0.6,0-1-0.4-1-1c0-3.9,3.1-7,7-7s7,3.1,7,7C23,13.5,22.5,13.9,22,13.9z"/>
</svg>