<?xml version="1.0" encoding="utf-8"?>

<!-- Uploaded to: SVG Repo, www.svgrepo.com, Generator: SVG Repo Mixer Tools -->
<svg fill="#000000" height="800px" width="800px" version="1.1" id="Icons" xmlns="http://www.w3.org/2000/svg" xmlns:xlink="http://www.w3.org/1999/xlink" 
	 viewBox="0 0 32 32" xml:space="preserve">
<path d="M16,2C9.9,2,5,6.8,5,12.8c0,9.1,10,16.7,10.4,17c0.2,0.1,0.4,0.2,0.6,0.2s0.4-0.1,0.6-0.2c0.4-0.3,10.4-8,10.4-17
	C27,6.8,22.1,2,16,2z M19.8,14.1l1.9-0.5c0.5-0.1,1.1,0.2,1.2,0.7c0.1,0.5-0.2,1.1-0.7,1.2l-1.4,0.4l0.4,1.4
	c0.1,0.5-0.2,1.1-0.7,1.2c-0.1,0-0.2,0-0.3,0c-0.4,0-0.8-0.3-1-0.7l-0.5-1.9L17,14.8v2.1l1.4,1.4c0.4,0.4,0.4,1,0,1.4
	C18.2,19.9,18,20,17.7,20s-0.5-0.1-0.7-0.3l-1-1l-1,1c-0.4,0.4-1,0.4-1.4,0s-0.4-1,0-1.4l1.4-1.4v-2.1l-1.8,1.1l-0.5,1.9
	c-0.1,0.4-0.5,0.7-1,0.7c-0.1,0-0.2,0-0.3,0c-0.5-0.1-0.8-0.7-0.7-1.2l0.4-1.4l-1.4-0.4c-0.5-0.1-0.8-0.7-0.7-1.2
	c0.1-0.5,0.7-0.9,1.2-0.7l1.9,0.5L14,13L12.2,12l-1.9,0.5c-0.1,0-0.2,0-0.3,0c-0.4,0-0.8-0.3-1-0.7c-0.1-0.5,0.2-1.1,0.7-1.2
	l1.4-0.4l-0.4-1.4c-0.1-0.5,0.2-1.1,0.7-1.2c0.5-0.1,1.1,0.2,1.2,0.7l0.5,1.9l1.8,1.1V9.2l-1.4-1.4c-0.4-0.4-0.4-1,0-1.4
	s1-0.4,1.4,0l1,1l1-1c0.4-0.4,1-0.4,1.4,0s0.4,1,0,1.4L17,9.2v2.1l1.8-1.1l0.5-1.9c0.1-0.5,0.7-0.9,1.2-0.7c0.5,0.1,0.8,0.7,0.7,1.2
	l-0.4,1.4l1.4,0.4c0.5,0.1,0.8,0.7,0.7,1.2c-0.1,0.4-0.5,0.7-1,0.7c-0.1,0-0.2,0-0.3,0L19.8,12L18,13L19.8,14.1z"/>
</svg>