<?xml version="1.0" encoding="utf-8"?>

<!-- Uploaded to: SVG Repo, www.svgrepo.com, Generator: SVG Repo Mixer Tools -->
<svg fill="#000000" height="800px" width="800px" version="1.1" id="Icons" xmlns="http://www.w3.org/2000/svg" xmlns:xlink="http://www.w3.org/1999/xlink" 
	 viewBox="0 0 32 32" xml:space="preserve">
<path d="M16,2C9.9,2,5,6.8,5,12.8c0,9.1,10,16.7,10.4,17c0.2,0.1,0.4,0.2,0.6,0.2s0.4-0.1,0.6-0.2c0.4-0.3,10.4-8,10.4-17
	C27,6.8,22.1,2,16,2z M18,18h-6.8C9.5,18,8,16.5,8,14.7s1.5-3.3,3.3-3.3c0.5,0,0.9-0.4,1-0.9C12.9,7.9,15.3,6,18,6c3.3,0,6,2.7,6,6
	S21.3,18,18,18z"/>
</svg>