<?xml version="1.0" encoding="utf-8"?>

<!-- Uploaded to: SVG Repo, www.svgrepo.com, Generator: SVG Repo Mixer Tools -->
<svg fill="#000000" height="800px" width="800px" version="1.1" id="Icons" xmlns="http://www.w3.org/2000/svg" xmlns:xlink="http://www.w3.org/1999/xlink" 
	 viewBox="0 0 32 32" xml:space="preserve">
<path d="M16,2C9.9,2,5,6.8,5,12.8c0,9.1,10,16.7,10.4,17c0.2,0.1,0.4,0.2,0.6,0.2s0.4-0.1,0.6-0.2c0.4-0.3,10.4-8,10.4-17
	C27,6.8,22.1,2,16,2z M21.6,14.8l-8.5,7C13,21.9,12.7,22,12.5,22c-0.2,0-0.4-0.1-0.6-0.2c-0.4-0.2-0.5-0.7-0.4-1.1l1.8-5.7H11
	c-0.4,0-0.8-0.3-0.9-0.7s0-0.8,0.3-1.1l8.5-7c0.3-0.3,0.8-0.3,1.2-0.1c0.4,0.2,0.5,0.7,0.4,1.1L18.7,13H21c0.4,0,0.8,0.3,0.9,0.7
	S22,14.5,21.6,14.8z"/>
</svg>