<?xml version="1.0" encoding="utf-8"?>

<!-- Uploaded to: SVG Repo, www.svgrepo.com, Generator: SVG Repo Mixer Tools -->
<svg fill="#000000" height="800px" width="800px" version="1.1" id="Icons" xmlns="http://www.w3.org/2000/svg" xmlns:xlink="http://www.w3.org/1999/xlink" 
	 viewBox="0 0 32 32" xml:space="preserve">
<g>
	<path d="M16,23c-3.3,0-6,2.7-6,6c0,0.6,0.4,1,1,1s1-0.4,1-1c0-2.2,1.8-4,4-4s4,1.8,4,4c0,0.6,0.4,1,1,1s1-0.4,1-1
		C22,25.7,19.3,23,16,23z"/>
	<path d="M16,19c-5.5,0-10,4.5-10,10c0,0.6,0.4,1,1,1s1-0.4,1-1c0-4.4,3.6-8,8-8s8,3.6,8,8c0,0.6,0.4,1,1,1s1-0.4,1-1
		C26,23.5,21.5,19,16,19z"/>
	<path d="M24.6,18c0.8-1.2,1.3-2.5,1.3-4c0-3.8-3.1-6.9-6.9-6.9s-6.9,3.1-6.9,6.9c0,0.5,0.1,1,0.2,1.5C6.3,17.2,2,22.6,2,29
		c0,0.6,0.4,1,1,1s1-0.4,1-1c0-6.6,5.4-12,12-12s12,5.4,12,12c0,0.6,0.4,1,1,1s1-0.4,1-1C30,24.5,27.9,20.6,24.6,18z"/>
	<path d="M19,6.5c0.6,0,1-0.4,1-1V3c0-0.6-0.4-1-1-1s-1,0.4-1,1v2.5C18,6.1,18.4,6.5,19,6.5z"/>
	<path d="M12.3,8.7C12.5,8.9,12.8,9,13,9s0.5-0.1,0.7-0.3c0.4-0.4,0.4-1,0-1.4l-1.8-1.8c-0.4-0.4-1-0.4-1.4,0s-0.4,1,0,1.4L12.3,8.7
		z"/>
	<path d="M8,15h2.5c0.6,0,1-0.4,1-1s-0.4-1-1-1H8c-0.6,0-1,0.4-1,1S7.4,15,8,15z"/>
	<path d="M30,13h-2.5c-0.6,0-1,0.4-1,1s0.4,1,1,1H30c0.6,0,1-0.4,1-1S30.6,13,30,13z"/>
	<path d="M25,9c0.3,0,0.5-0.1,0.7-0.3l1.8-1.8c0.4-0.4,0.4-1,0-1.4s-1-0.4-1.4,0l-1.8,1.8c-0.4,0.4-0.4,1,0,1.4
		C24.5,8.9,24.7,9,25,9z"/>
</g>
</svg>