<?xml version="1.0" encoding="utf-8"?>

<!-- Uploaded to: SVG Repo, www.svgrepo.com, Generator: SVG Repo Mixer Tools -->
<svg fill="#000000" height="800px" width="800px" version="1.1" id="Icons" xmlns="http://www.w3.org/2000/svg" xmlns:xlink="http://www.w3.org/1999/xlink" 
	 viewBox="0 0 32 32" xml:space="preserve">
<g>
	<path d="M4,14H2c-0.6,0-1-0.4-1-1s0.4-1,1-1h2c0.6,0,1,0.4,1,1S4.6,14,4,14z"/>
</g>
<g>
	<path d="M19.4,7.6c-0.3,0-0.5-0.1-0.7-0.3c-0.4-0.4-0.4-1,0-1.4l1.4-1.4c0.4-0.4,1-0.4,1.4,0s0.4,1,0,1.4l-1.4,1.4
		C19.9,7.5,19.6,7.6,19.4,7.6z"/>
</g>
<g>
	<path d="M13,5c-0.6,0-1-0.4-1-1V2c0-0.6,0.4-1,1-1s1,0.4,1,1v2C14,4.6,13.6,5,13,5z"/>
</g>
<g>
	<path d="M6.6,7.6c-0.3,0-0.5-0.1-0.7-0.3L4.5,5.9c-0.4-0.4-0.4-1,0-1.4c0.4-0.4,1-0.4,1.4,0l1.4,1.4c0.4,0.4,0.4,1,0,1.4
		C7.1,7.5,6.9,7.6,6.6,7.6z"/>
</g>
<path d="M27,25c-0.1-0.5-0.7-0.9-1.2-0.7l-1.5,0.4L23,24l1.2-0.7l1.5,0.4c0.1,0,0.2,0,0.3,0c0.4,0,0.8-0.3,1-0.7
	c0.1-0.5-0.2-1.1-0.7-1.2l-1-0.3l0.3-1c0.1-0.5-0.2-1.1-0.7-1.2c-0.5-0.1-1.1,0.2-1.2,0.7l-0.4,1.5L22,22.3v-1.4l1.1-1.1
	c0.4-0.4,0.4-1,0-1.4s-1-0.4-1.4,0L21,19.1l-0.7-0.7c-0.4-0.4-1-0.4-1.4,0s-0.4,1,0,1.4l1.1,1.1v1.4l-1.2-0.7l-0.4-1.5
	c-0.1-0.5-0.7-0.9-1.2-0.7c-0.5,0.1-0.9,0.7-0.7,1.2l0.3,1l-1,0.3c-0.5,0.1-0.9,0.7-0.7,1.2c0.1,0.4,0.5,0.7,1,0.7
	c0.1,0,0.2,0,0.3,0l1.5-0.4L19,24l-1.2,0.7l-1.5-0.4c-0.5-0.1-1.1,0.2-1.2,0.7c-0.1,0.5,0.2,1.1,0.7,1.2l1,0.3l-0.3,1
	c-0.1,0.5,0.2,1.1,0.7,1.2c0.1,0,0.2,0,0.3,0c0.4,0,0.8-0.3,1-0.7l0.4-1.5l1.2-0.7v1.4l-1.1,1.1c-0.4,0.4-0.4,1,0,1.4s1,0.4,1.4,0
	L21,29l0.7,0.7c0.2,0.2,0.5,0.3,0.7,0.3s0.5-0.1,0.7-0.3c0.4-0.4,0.4-1,0-1.4L22,27.2v-1.4l1.2,0.7l0.4,1.5c0.1,0.4,0.5,0.7,1,0.7
	c0.1,0,0.2,0,0.3,0c0.5-0.1,0.9-0.7,0.7-1.2l-0.3-1l1-0.3C26.8,26.1,27.1,25.6,27,25z"/>
<path d="M22.3,11c-3.4,0-6.3,2-7.3,5.1c-2.7,0.1-4.9,2.3-4.9,5c0,1.7,0.9,3.2,2.3,4.1c0.2,0.1,0.4,0.2,0.5,0.2c0.1,0,0.1,0,0.2,0
	c0-0.3,0-0.5,0.1-0.8c0-0.2,0.1-0.3,0.2-0.5c-0.1-0.2-0.1-0.3-0.2-0.5c-0.2-0.8-0.1-1.6,0.3-2.3c0.3-0.4,0.6-0.8,1-1
	c0-0.5,0.2-1,0.4-1.4c0.4-0.7,1-1.2,1.8-1.4c0.2,0,0.3-0.1,0.5-0.1c0.1-0.1,0.2-0.3,0.3-0.4c1-1,2.4-1.1,3.5-0.5
	c1.1-0.6,2.6-0.4,3.5,0.5c0.1,0.1,0.2,0.3,0.3,0.4c0.2,0,0.3,0,0.5,0.1c0.8,0.2,1.4,0.7,1.8,1.4c0.3,0.4,0.4,0.9,0.4,1.4
	c0.4,0.3,0.8,0.6,1,1c0.1,0.2,0.2,0.4,0.3,0.6c0.2-0.1,0.5-0.3,0.6-0.5c0.4-0.9,0.6-1.9,0.6-2.9C30,14.4,26.5,11,22.3,11z"/>
<path d="M8.5,18.4c0.9-2.1,2.7-3.7,5-4.2c1.1-2.2,3.1-3.9,5.5-4.7C17.8,7.4,15.6,6,13,6c-3.9,0-7,3.1-7,7C6,15.1,7,17.1,8.5,18.4z"
	/>
</svg>