<?xml version="1.0" encoding="utf-8"?>

<!-- Uploaded to: SVG Repo, www.svgrepo.com, Generator: SVG Repo Mixer Tools -->
<svg fill="#000000" height="800px" width="800px" version="1.1" id="Icons" xmlns="http://www.w3.org/2000/svg" xmlns:xlink="http://www.w3.org/1999/xlink" 
	 viewBox="0 0 32 32" xml:space="preserve">
<g>
	<path d="M22.3,24.1c-0.8,0-1.6-0.3-2.3-0.9c-0.5-0.5-1.3-0.5-1.8,0c-1.2,1.2-3.3,1.2-4.5,0c-0.5-0.5-1.3-0.5-1.8,0
		c-1.2,1.2-3.3,1.2-4.5,0c-0.5-0.5-1.3-0.5-1.8,0c-0.4,0.4-1,0.4-1.4,0s-0.4-1,0-1.4c1.2-1.2,3.3-1.2,4.5,0c0.5,0.5,1.3,0.5,1.8,0
		c1.2-1.2,3.3-1.2,4.5,0c0.5,0.5,1.3,0.5,1.8,0c1.2-1.2,3.3-1.2,4.5,0c0.5,0.5,1.3,0.5,1.8,0c1.2-1.2,3.3-1.2,4.5,0
		c0.4,0.4,0.4,1,0,1.4c-0.4,0.4-1,0.4-1.4,0c-0.5-0.5-1.3-0.5-1.8,0C23.9,23.8,23.1,24.1,22.3,24.1z"/>
</g>
<g>
	<path d="M8.6,28.1c-0.9,0-1.8-0.3-2.5-0.8c-0.7-0.5-1.8-0.5-2.5,0c-0.4,0.3-1.1,0.3-1.4-0.1c-0.3-0.4-0.3-1.1,0.1-1.4
		c1.4-1.1,3.6-1.1,5,0c0.7,0.5,1.8,0.5,2.5,0c1.4-1.1,3.6-1.1,5,0c0.7,0.5,1.8,0.5,2.5,0c1.4-1.1,3.6-1.1,5,0c0.7,0.5,1.8,0.5,2.5,0
		c1.4-1.1,3.6-1.1,5,0c0.4,0.3,0.5,1,0.1,1.4c-0.3,0.4-1,0.5-1.4,0.1c-0.7-0.5-1.8-0.5-2.5,0c-1.4,1.1-3.6,1.1-5,0
		c-0.7-0.5-1.8-0.5-2.5,0c-1.4,1.1-3.6,1.1-5,0c-0.7-0.5-1.8-0.5-2.5,0C10.4,27.8,9.5,28.1,8.6,28.1z"/>
</g>
<g>
	<path d="M16,7c-0.6,0-1-0.4-1-1V3c0-0.6,0.4-1,1-1s1,0.4,1,1v3C17,6.6,16.6,7,16,7z"/>
</g>
<g>
	<path d="M8.9,9.9c-0.3,0-0.5-0.1-0.7-0.3L6.1,7.5c-0.4-0.4-0.4-1,0-1.4s1-0.4,1.4,0l2.1,2.1c0.4,0.4,0.4,1,0,1.4
		C9.4,9.8,9.2,9.9,8.9,9.9z"/>
</g>
<g>
	<path d="M6,17H3c-0.6,0-1-0.4-1-1s0.4-1,1-1h3c0.6,0,1,0.4,1,1S6.6,17,6,17z"/>
</g>
<g>
	<path d="M29,17h-3c-0.6,0-1-0.4-1-1s0.4-1,1-1h3c0.6,0,1,0.4,1,1S29.6,17,29,17z"/>
</g>
<g>
	<path d="M23.1,9.9c-0.3,0-0.5-0.1-0.7-0.3c-0.4-0.4-0.4-1,0-1.4l2.1-2.1c0.4-0.4,1-0.4,1.4,0s0.4,1,0,1.4l-2.1,2.1
		C23.6,9.8,23.3,9.9,23.1,9.9z"/>
</g>
<path d="M16,8c-4.4,0-8,3.6-8,8c0,1.2,0.3,2.3,0.8,3.4C8.9,19.8,9.3,20,9.7,20H15v-5.6l-1.3,1.3c-0.4,0.4-1,0.4-1.4,0s-0.4-1,0-1.4
	l3-3c0.1-0.1,0.2-0.2,0.3-0.2c0.2-0.1,0.5-0.1,0.8,0c0.1,0.1,0.2,0.1,0.3,0.2l3,3c0.4,0.4,0.4,1,0,1.4C19.5,15.9,19.3,16,19,16
	s-0.5-0.1-0.7-0.3L17,14.4V20h5.3c0.4,0,0.7-0.2,0.9-0.6c0.5-1.1,0.8-2.2,0.8-3.4C24,11.6,20.4,8,16,8z"/>
</svg>