<?xml version="1.0" encoding="utf-8"?>

<!-- Uploaded to: SVG Repo, www.svgrepo.com, Generator: SVG Repo Mixer Tools -->
<svg fill="#000000" height="800px" width="800px" version="1.1" id="Icons" xmlns="http://www.w3.org/2000/svg" xmlns:xlink="http://www.w3.org/1999/xlink" 
	 viewBox="0 0 32 32" xml:space="preserve">
<path d="M13,17.3V6c0-2.2-1.8-4-4-4S5,3.8,5,6v11.3c-1.9,1.3-3,3.5-3,5.7c0,3.9,3.1,7,7,7s7-3.1,7-7C16,20.7,14.9,18.6,13,17.3z
	 M9,27c-2.2,0-4-1.8-4-4c0-1.9,1.3-3.4,3-3.9V6c0-0.6,0.4-1,1-1s1,0.4,1,1v13.1c1.7,0.4,3,2,3,3.9C13,25.2,11.2,27,9,27z"/>
<path d="M20,8c-2.8,0-5,2.2-5,5s2.2,5,5,5s5-2.2,5-5S22.8,8,20,8z"/>
<path d="M20,7c0.6,0,1-0.4,1-1V4c0-0.6-0.4-1-1-1s-1,0.4-1,1v2C19,6.6,19.4,7,20,7z"/>
<path d="M20,19c-0.6,0-1,0.4-1,1v2c0,0.6,0.4,1,1,1s1-0.4,1-1v-2C21,19.4,20.6,19,20,19z"/>
<path d="M25.7,17.2c-0.4-0.4-1-0.4-1.4,0s-0.4,1,0,1.4l1.4,1.4c0.2,0.2,0.5,0.3,0.7,0.3s0.5-0.1,0.7-0.3c0.4-0.4,0.4-1,0-1.4
	L25.7,17.2z"/>
<path d="M29,12h-2c-0.6,0-1,0.4-1,1s0.4,1,1,1h2c0.6,0,1-0.4,1-1S29.6,12,29,12z"/>
<path d="M25,9.1c0.3,0,0.5-0.1,0.7-0.3l1.4-1.4c0.4-0.4,0.4-1,0-1.4s-1-0.4-1.4,0l-1.4,1.4c-0.4,0.4-0.4,1,0,1.4
	C24.4,9,24.7,9.1,25,9.1z"/>
</svg>