<?xml version="1.0" encoding="utf-8"?>

<!-- Uploaded to: SVG Repo, www.svgrepo.com, Generator: SVG Repo Mixer Tools -->
<svg fill="#000000" height="800px" width="800px" version="1.1" id="Icons" xmlns="http://www.w3.org/2000/svg" xmlns:xlink="http://www.w3.org/1999/xlink" 
	 viewBox="0 0 32 32" xml:space="preserve">
<g>
	<path d="M16.9,4.3C17,4.2,17,4.1,17,4V2c0-0.6-0.4-1-1-1s-1,0.4-1,1v2c0,0.1,0,0.2,0.1,0.3c-2.4,1.2-4.7,6.9-5,14.7H15v7.5
		c0,0.8-0.7,1.5-1.5,1.5S12,27.3,12,26.5c0-0.6-0.4-1-1-1s-1,0.4-1,1c0,1.9,1.6,3.5,3.5,3.5s3.5-1.6,3.5-3.5V19h4.9
		C21.6,11.1,19.3,5.5,16.9,4.3z"/>
	<path d="M2,18c0,0.6,0.4,1,1,1h5c0.3-6.3,1.7-11.4,3.8-14.4C6.1,6.4,2,11.7,2,18z"/>
	<path d="M20.2,4.6c2.1,2.9,3.5,8.1,3.8,14.4h5c0.6,0,1-0.4,1-1C30,11.7,25.9,6.4,20.2,4.6z"/>
</g>
</svg>