<?xml version="1.0" encoding="utf-8"?>

<!-- Uploaded to: SVG Repo, www.svgrepo.com, Generator: SVG Repo Mixer Tools -->
<svg fill="#000000" height="800px" width="800px" version="1.1" id="Icons" xmlns="http://www.w3.org/2000/svg" xmlns:xlink="http://www.w3.org/1999/xlink" 
	 viewBox="0 0 32 32" xml:space="preserve">
<g>
	<path d="M29,5.4c-1.3-1.3-3.7-1.3-5,0l-5.4,5.4l-2.2-2.2c-0.2-0.2-0.5-0.3-0.8-0.3c-0.3,0-0.6,0.2-0.7,0.4L6.7,19.5l14.9-5.6
		l-1.7-1.7l5.4-5.4c0.6-0.6,1.6-0.6,2.2,0C27.8,7.1,28,7.5,28,7.9c0,0.4-0.2,0.8-0.5,1.1c-0.4,0.4-0.4,1,0,1.4s1,0.4,1.4,0
		c0.7-0.7,1-1.6,1-2.5C30,6.9,29.6,6,29,5.4z"/>
	<path d="M2.4,25.2c-0.6,0.9-0.6,2.1,0.2,2.8c0.4,0.4,1,0.6,1.5,0.6c0.5,0,0.9-0.1,1.3-0.4L21.9,16L4.5,22.5L2.4,25.2z"/>
</g>
</svg>