<?xml version="1.0" encoding="utf-8"?>

<!-- Uploaded to: SVG Repo, www.svgrepo.com, Generator: SVG Repo Mixer Tools -->
<svg fill="#000000" height="800px" width="800px" version="1.1" id="Icons" xmlns="http://www.w3.org/2000/svg" xmlns:xlink="http://www.w3.org/1999/xlink" 
	 viewBox="0 0 32 32" xml:space="preserve">
<path d="M27.7,18.1l-4.2,1.1L19.7,17H23c0.6,0,1-0.4,1-1s-0.4-1-1-1h-3.3l3.8-2.2l4.2,1.1c0.1,0,0.2,0,0.3,0c0.4,0,0.8-0.3,1-0.7
	c0.1-0.5-0.2-1.1-0.7-1.2l-3.7-1l1-3.7c0.1-0.5-0.2-1.1-0.7-1.2c-0.5-0.1-1.1,0.2-1.2,0.7l-1.1,4.3L19.2,13l1.6-2.4
	c0.3-0.5,0.2-1.1-0.3-1.4c-0.5-0.3-1.1-0.2-1.4,0.3L17,12.7V7.8l3.1-3.1c0.4-0.4,0.4-1,0-1.4c-0.4-0.4-1-0.4-1.4,0L16,6l-2.7-2.7
	c-0.4-0.4-1-0.4-1.4,0c-0.4,0.4-0.4,1,0,1.4L15,7.8v4.9l-2.2-3.3c-0.3-0.5-0.9-0.6-1.4-0.3c-0.5,0.3-0.6,0.9-0.3,1.4l1.6,2.4
	l-3.3-1.9L8.4,6.8C8.2,6.2,7.7,5.9,7.1,6.1C6.6,6.2,6.3,6.8,6.4,7.3l1,3.7l-3.7,1c-0.5,0.1-0.8,0.7-0.7,1.2C3.2,13.7,3.6,14,4,14
	c0.1,0,0.2,0,0.3,0l4.2-1.1l3.8,2.2H9c-0.6,0-1,0.4-1,1s0.4,1,1,1h3.3l-3.8,2.2l-4.2-1.1c-0.5-0.1-1.1,0.2-1.2,0.7
	c-0.1,0.5,0.2,1.1,0.7,1.2l3.7,1l-1,3.7c-0.1,0.5,0.2,1.1,0.7,1.2c0.1,0,0.2,0,0.3,0c0.4,0,0.8-0.3,1-0.7l1.1-4.3l3.3-1.9l-1.6,2.4
	c-0.3,0.5-0.2,1.1,0.3,1.4c0.2,0.1,0.4,0.2,0.6,0.2c0.3,0,0.6-0.2,0.8-0.4l2.2-3.3v4.9l-3.1,3.1c-0.4,0.4-0.4,1,0,1.4
	c0.4,0.4,1,0.4,1.4,0L16,26l2.7,2.7c0.2,0.2,0.5,0.3,0.7,0.3c0.3,0,0.5-0.1,0.7-0.3c0.4-0.4,0.4-1,0-1.4L17,24.2v-4.9l2.2,3.3
	c0.2,0.3,0.5,0.4,0.8,0.4c0.2,0,0.4-0.1,0.6-0.2c0.5-0.3,0.6-0.9,0.3-1.4L19.2,19l3.3,1.9l1.1,4.3c0.1,0.4,0.5,0.7,1,0.7
	c0.1,0,0.2,0,0.3,0c0.5-0.1,0.9-0.7,0.7-1.2l-1-3.7l3.7-1c0.5-0.1,0.8-0.7,0.7-1.2C28.8,18.2,28.3,17.9,27.7,18.1z"/>
</svg>